<svg
  width="685"
  height="278"
  viewBox="0 0 685 278"
  fill="none"
  xmlns="http://www.w3.org/2000/svg"
>
  <g filter="url(#filter0_f_135_210)">
    <path
      fill-rule="evenodd"
      clip-rule="evenodd"
      d="M184.762 39.3689C184.957 39.1841 185.154 39.0013 185.353 38.8206C196.037 29.1171 209.105 25 221.775 25C234.225 25 247.778 28.9343 258.788 39.3689C265.61 45.8337 270.335 53.7159 272.808 62.3209C280.73 60.5971 288.817 59.8655 296.886 59.8655C307.346 59.8655 317.821 61.2151 327.938 64.3951C332.714 52.4155 343.436 43.3111 356.793 41.0095C358.67 40.686 360.973 40.3385 363.515 39.9771C367.686 39.3843 371.889 39.0836 376.113 39.0836C383.255 39.0836 396.214 39.8846 408.053 47.7776C412.661 44.4051 418.083 42.0337 424.028 41.0095C425.905 40.686 428.208 40.3385 430.75 39.9771C430.833 39.9653 430.917 39.9537 431 39.9424C435.037 39.3958 439.165 39.0836 443.347 39.0836C450.828 39.0836 464.689 39.9623 476.962 48.9477C478.584 50.1238 480.072 51.3578 481.436 52.6361C483.019 51.2671 484.72 50.025 486.524 48.9259C493.473 44.6919 500.86 42.695 505.668 41.6141C512.047 40.087 518.619 39.2554 525.323 39.2554C533.988 39.2554 542.991 40.4774 551.823 43.6176C556.736 45.3122 562.119 47.9433 567.133 51.8004C572.409 46.4368 579.301 42.6079 587.138 41.1224C589.236 40.7247 591.753 40.3396 594.303 39.9771C594.386 39.9653 594.47 39.9537 594.553 39.9424C598.681 39.3836 602.863 39.0836 607.082 39.0836C614.641 39.0836 628.716 39.9808 641.083 49.2337C657.951 61.8546 659.761 80.6832 659.761 89.4497V182.711C659.761 199.288 649.015 213.952 633.208 218.946C628.515 220.428 623.834 221.024 620.92 221.319C616.974 221.837 613.02 222.085 609.075 222.085C603.878 222.085 595.308 221.678 586.349 218.215C586.049 218.332 585.753 218.445 585.46 218.555C577.556 221.634 569.717 222.6 562.837 222.6C555.637 222.6 540.629 221.778 527.949 211.175C527.449 210.757 526.963 210.333 526.488 209.904C521.787 214.552 515.882 217.967 509.28 219.673C507.462 220.143 505.595 220.571 503.715 220.965C498.497 222.222 493.54 222.6 489.26 222.6C480.889 222.6 468.517 221.358 457.037 213.94C456.733 213.744 456.433 213.545 456.135 213.343C455.029 213.938 453.909 214.508 452.776 215.054C452.626 215.126 452.476 215.197 452.325 215.267C439.043 221.455 424.78 223.802 410.727 223.802C396.673 223.802 382.41 221.455 369.128 215.267C368.9 215.161 368.673 215.053 368.448 214.942C363.142 212.341 358.14 209.214 353.537 205.549C349.468 208.856 345.032 211.763 340.251 214.234C340.097 214.314 339.943 214.393 339.787 214.47C333.717 217.504 327.439 219.7 321.051 221.162C318.228 234.812 308.038 246.08 294.23 250.006C290.861 250.964 287.434 251.586 284.692 252.019C280.287 252.715 275.926 253 271.696 253C263.753 253 250.436 251.92 238.444 243.397C238.192 243.218 237.942 243.035 237.695 242.85C229.565 236.767 224.91 229.253 222.281 222.08C214.34 221.995 201.421 220.747 189.792 212.481C189.54 212.302 189.29 212.12 189.043 211.935C188.394 211.45 187.768 210.955 187.163 210.453C182.848 214.495 177.555 217.565 171.584 219.262C167.71 220.364 163.92 220.928 161.008 221.261C156.957 221.843 152.948 222.085 149.05 222.085C143.26 222.085 134.613 221.511 125.707 217.898C114.713 222.78 103.421 223.459 95.8377 223.459C80.7385 223.459 63.5691 220.271 48.9848 209.095C48.8801 209.015 48.7759 208.934 48.672 208.853C30.6528 194.746 25.7608 174.28 25.7608 157.635V80.1751C25.7608 63.1906 37.0317 48.2685 53.3688 43.6237C56.4026 42.7612 59.4829 42.1704 62.0682 41.745C66.6715 40.8521 71.2451 40.4576 75.7217 40.4576C83.2815 40.4576 97.3559 41.3548 109.723 50.6076C115.426 54.8747 119.418 59.8461 122.202 64.9098C125.898 65.5626 129.455 66.7563 132.764 68.4325C138.178 66.0925 143.737 64.3662 149.262 63.0995C156.553 61.3549 163.96 60.3796 171.432 60.113C174.045 52.368 178.529 45.2766 184.762 39.3689Z"
      fill="#CAAD90"
    />
  </g>
  <defs>
    <filter
      id="filter0_f_135_210"
      x="0.760803"
      y="0"
      width="684"
      height="278"
      filterUnits="userSpaceOnUse"
      color-interpolation-filters="sRGB"
    >
      <feFlood flood-opacity="0" result="BackgroundImageFix" />
      <feBlend
        mode="normal"
        in="SourceGraphic"
        in2="BackgroundImageFix"
        result="shape"
      />
      <feGaussianBlur
        stdDeviation="12.5"
        result="effect1_foregroundBlur_135_210"
      />
    </filter>
  </defs>
</svg>
