<svg
  width="573"
  height="166"
  viewBox="0 0 573 166"
  fill="none"
  xmlns="http://www.w3.org/2000/svg"
>
  <g filter="url(#filter0_i_6_42)">
    <mask
      id="path-1-outside-1_6_42"
      maskUnits="userSpaceOnUse"
      x="0.760803"
      y="0"
      width="572"
      height="166"
      fill="black"
    >
      <rect fill="white" x="0.760803" width="572" height="166" />
      <path
        d="M150.733 20.7401C150.733 16.8471 152.123 13.5838 154.902 10.9503C157.801 8.31676 161.426 7 165.775 7C170.245 7 173.87 8.31676 176.649 10.9503C179.427 13.5838 180.817 16.8471 180.817 20.7401C180.817 24.5186 179.427 27.7819 176.649 30.5299C173.87 33.278 170.245 34.652 165.775 34.652C161.426 34.652 157.801 33.278 154.902 30.5299C152.123 27.7819 150.733 24.5186 150.733 20.7401Z"
      />
      <path
        d="M179.186 126.711C178.098 127.054 176.467 127.34 174.293 127.569C172.118 127.913 169.762 128.085 167.225 128.085C162.03 128.085 158.224 127.226 155.808 125.508C153.512 123.791 152.364 120.699 152.364 116.234V45.4723C153.452 45.1288 155.083 44.7853 157.258 44.4418C159.553 44.0983 161.969 43.9266 164.507 43.9266C169.702 43.9266 173.447 44.7853 175.743 46.5028C178.038 48.1058 179.186 51.2546 179.186 55.9492V126.711Z"
      />
      <path
        fill-rule="evenodd"
        clip-rule="evenodd"
        d="M244.148 129.459C239.557 129.459 235.449 128.886 231.825 127.741C230.424 127.343 229.095 126.919 227.838 126.469V157.454C226.63 157.798 224.938 158.141 222.763 158.485C220.589 158.828 218.233 159 215.696 159C210.621 159 206.876 158.141 204.46 156.424C202.164 154.706 201.016 151.557 201.016 146.977V61.617C201.016 58.7544 201.621 56.4072 202.829 54.5751C204.037 52.6286 205.91 50.9111 208.447 49.4226C212.071 47.2471 216.662 45.4723 222.22 44.0983C227.777 42.6098 233.999 41.8655 240.886 41.8655C250.189 41.8655 258.404 43.4113 265.533 46.5028C272.782 49.4799 278.4 54.1744 282.387 60.5864C286.374 66.884 288.367 75.0708 288.367 85.1469C288.367 94.8795 286.434 103.009 282.568 109.536C278.702 116.062 273.446 121.043 266.801 124.478C260.156 127.798 252.605 129.459 244.148 129.459ZM229.831 107.131C229.078 106.774 228.353 106.409 227.657 106.037V65.2237C229.227 64.3077 231.1 63.5635 233.275 62.991C235.57 62.304 238.107 61.9605 240.886 61.9605C244.994 61.9605 248.558 62.762 251.578 64.365C254.599 65.968 256.894 68.487 258.465 71.922C260.156 75.2426 261.002 79.6508 261.002 85.1469C261.002 93.162 259.129 99.1733 255.384 103.181C251.76 107.188 246.625 109.192 239.98 109.192C236.235 109.192 232.852 108.505 229.831 107.131Z"
      />
      <path
        d="M105.192 66.5977C107.729 65.2237 110.81 64.136 114.435 63.3345C118.059 62.533 121.684 62.1322 125.308 62.1322C127.362 62.1322 129.235 62.2467 130.926 62.4757C132.738 62.5902 134.249 62.762 135.457 62.991C136.182 61.846 136.786 60.4719 137.269 58.8689C137.873 57.2659 138.175 55.5484 138.175 53.7164C138.175 45.9303 132.013 42.0373 119.69 42.0373C113.528 42.0373 107.608 42.7243 101.93 44.0983C96.3725 45.3578 91.6002 47.1326 87.6132 49.4226C84.7136 51.1401 82.4181 53.1439 80.7267 55.4339C79.156 57.6094 78.3707 60.3002 78.3707 63.5062V116.234C78.3707 120.699 79.5185 123.791 81.814 125.508C84.2304 127.226 87.9757 128.085 93.05 128.085C95.5872 128.085 97.9431 127.913 100.118 127.569C102.292 127.34 103.984 127.054 105.192 126.711V66.5977Z"
      />
      <path
        d="M34.4009 99.9175C34.4009 103.124 35.4883 105.471 37.663 106.959C39.8377 108.448 42.9185 109.192 46.9055 109.192C48.7177 109.192 50.6508 109.02 52.7047 108.677C54.8794 108.219 56.6917 107.704 58.1415 107.131C59.108 108.162 59.9537 109.421 60.6786 110.91C61.5243 112.398 61.9472 114.116 61.9472 116.062C61.9472 119.955 60.2558 123.161 56.8729 125.68C53.49 128.199 47.8116 129.459 39.8377 129.459C29.6891 129.459 21.7756 127.283 16.0972 122.932C10.5396 118.581 7.7608 111.482 7.7608 101.635V24.1751C8.96897 23.8316 10.6604 23.4881 12.8351 23.1446C15.0098 22.6866 17.3053 22.4576 19.7217 22.4576C24.9168 22.4576 28.6621 23.3164 30.9577 25.0339C33.2532 26.7514 34.4009 29.9002 34.4009 34.4802V46.3311H59.5913C60.1953 47.2471 60.7994 48.5638 61.4035 50.2814C62.0076 51.9989 62.3096 53.8881 62.3096 55.9492C62.3096 59.3842 61.4639 61.9032 59.7725 63.5062C58.2019 65.1092 56.0272 65.9107 53.2484 65.9107H34.4009V99.9175Z"
      />
      <path
        d="M354.727 129.802C344.82 129.802 336.302 128.142 329.174 124.821C322.167 121.386 316.73 116.635 312.864 110.566C309.118 104.498 307.246 97.3985 307.246 89.2689V22.4576C308.575 22.2286 310.447 21.9424 312.864 21.5989C315.28 21.2554 317.696 21.0836 320.113 21.0836C325.308 21.0836 329.053 21.9424 331.349 23.6599C333.765 25.3774 334.973 28.6407 334.973 33.4497V88.5819C334.973 94.8795 336.785 99.803 340.41 103.353C344.155 106.788 348.927 108.505 354.727 108.505C360.526 108.505 365.238 106.788 368.862 103.353C372.608 99.803 374.48 94.8795 374.48 88.5819V22.4576C375.809 22.2286 377.682 21.9424 380.098 21.5989C382.635 21.2554 385.052 21.0836 387.347 21.0836C392.542 21.0836 396.288 21.9424 398.583 23.6599C401 25.3774 402.208 28.6407 402.208 33.4497V89.2689C402.208 97.3985 400.335 104.498 396.59 110.566C392.844 116.635 387.408 121.386 380.279 124.821C373.151 128.142 364.634 129.802 354.727 129.802Z"
      />
      <path
        d="M565.761 126.711V33.4497C565.761 28.6407 564.613 25.3774 562.318 23.6599C560.022 21.9424 556.277 21.0836 551.082 21.0836C548.665 21.0836 546.188 21.2554 543.651 21.5989C541.235 21.9424 539.423 22.2286 538.215 22.4576V115.719C538.215 120.299 539.302 123.505 541.477 125.337C543.772 127.169 547.638 128.085 553.075 128.085C555.612 128.085 558.089 127.913 560.505 127.569C562.922 127.34 564.673 127.054 565.761 126.711Z"
      />
      <path
        fill-rule="evenodd"
        clip-rule="evenodd"
        d="M450.739 103.696C450.349 104.922 449.96 106.182 449.57 107.475C448.966 109.879 448.301 112.226 447.576 114.516C446.852 116.806 446.187 118.982 445.583 121.043C444.979 123.104 444.375 125.05 443.771 126.882C442.442 127.226 440.931 127.569 439.24 127.913C437.549 128.371 435.555 128.6 433.26 128.6C428.185 128.6 424.319 127.741 421.661 126.024C419.003 124.306 417.674 121.787 417.674 118.467C417.674 117.093 417.855 115.661 418.218 114.173C418.701 112.684 419.245 110.967 419.849 109.02C420.936 105.242 422.447 100.49 424.38 94.765C426.433 89.0399 428.608 82.8569 430.904 76.2158C433.32 69.4603 435.736 62.8192 438.153 56.2926C440.69 49.7661 442.985 43.7548 445.039 38.2588C447.214 32.7627 448.966 28.4689 450.295 25.3774C451.986 24.3469 454.644 23.4309 458.269 22.6294C462.014 21.7134 465.699 21.2554 469.323 21.2554C474.519 21.2554 479.17 21.9996 483.278 23.4881C487.386 24.8621 489.983 27.0949 491.07 30.1864C493.366 36.255 495.843 43.2968 498.501 51.3119C501.28 59.2124 504.058 67.5137 506.837 76.2158C509.616 84.9179 512.274 93.391 514.811 101.635C517.469 109.765 519.765 117.093 521.698 123.619C520.369 124.993 518.436 126.138 515.898 127.054C513.361 128.085 510.341 128.6 506.837 128.6C501.884 128.6 498.38 127.741 496.326 126.024C494.272 124.306 492.702 121.73 491.614 118.295L487.213 103.696H450.739ZM469.142 44.4418H470.23C471.317 47.7623 472.525 51.5981 473.854 55.9492C475.183 60.1857 476.633 64.7085 478.203 69.5175C479.669 74.0052 481.082 78.6425 482.443 83.4294H455.57C456.966 79.1928 458.41 74.9563 459.9 70.7198C461.591 65.7962 463.222 61.1017 464.793 56.6362C466.484 52.1706 467.934 48.1058 469.142 44.4418Z"
      />
    </mask>
    <path
      d="M150.733 20.7401C150.733 16.8471 152.123 13.5838 154.902 10.9503C157.801 8.31676 161.426 7 165.775 7C170.245 7 173.87 8.31676 176.649 10.9503C179.427 13.5838 180.817 16.8471 180.817 20.7401C180.817 24.5186 179.427 27.7819 176.649 30.5299C173.87 33.278 170.245 34.652 165.775 34.652C161.426 34.652 157.801 33.278 154.902 30.5299C152.123 27.7819 150.733 24.5186 150.733 20.7401Z"
      fill="#CAAD90"
    />
    <path
      d="M179.186 126.711C178.098 127.054 176.467 127.34 174.293 127.569C172.118 127.913 169.762 128.085 167.225 128.085C162.03 128.085 158.224 127.226 155.808 125.508C153.512 123.791 152.364 120.699 152.364 116.234V45.4723C153.452 45.1288 155.083 44.7853 157.258 44.4418C159.553 44.0983 161.969 43.9266 164.507 43.9266C169.702 43.9266 173.447 44.7853 175.743 46.5028C178.038 48.1058 179.186 51.2546 179.186 55.9492V126.711Z"
      fill="#CAAD90"
    />
    <path
      fill-rule="evenodd"
      clip-rule="evenodd"
      d="M244.148 129.459C239.557 129.459 235.449 128.886 231.825 127.741C230.424 127.343 229.095 126.919 227.838 126.469V157.454C226.63 157.798 224.938 158.141 222.763 158.485C220.589 158.828 218.233 159 215.696 159C210.621 159 206.876 158.141 204.46 156.424C202.164 154.706 201.016 151.557 201.016 146.977V61.617C201.016 58.7544 201.621 56.4072 202.829 54.5751C204.037 52.6286 205.91 50.9111 208.447 49.4226C212.071 47.2471 216.662 45.4723 222.22 44.0983C227.777 42.6098 233.999 41.8655 240.886 41.8655C250.189 41.8655 258.404 43.4113 265.533 46.5028C272.782 49.4799 278.4 54.1744 282.387 60.5864C286.374 66.884 288.367 75.0708 288.367 85.1469C288.367 94.8795 286.434 103.009 282.568 109.536C278.702 116.062 273.446 121.043 266.801 124.478C260.156 127.798 252.605 129.459 244.148 129.459ZM229.831 107.131C229.078 106.774 228.353 106.409 227.657 106.037V65.2237C229.227 64.3077 231.1 63.5635 233.275 62.991C235.57 62.304 238.107 61.9605 240.886 61.9605C244.994 61.9605 248.558 62.762 251.578 64.365C254.599 65.968 256.894 68.487 258.465 71.922C260.156 75.2426 261.002 79.6508 261.002 85.1469C261.002 93.162 259.129 99.1733 255.384 103.181C251.76 107.188 246.625 109.192 239.98 109.192C236.235 109.192 232.852 108.505 229.831 107.131Z"
      fill="#CAAD90"
    />
    <path
      d="M105.192 66.5977C107.729 65.2237 110.81 64.136 114.435 63.3345C118.059 62.533 121.684 62.1322 125.308 62.1322C127.362 62.1322 129.235 62.2467 130.926 62.4757C132.738 62.5902 134.249 62.762 135.457 62.991C136.182 61.846 136.786 60.4719 137.269 58.8689C137.873 57.2659 138.175 55.5484 138.175 53.7164C138.175 45.9303 132.013 42.0373 119.69 42.0373C113.528 42.0373 107.608 42.7243 101.93 44.0983C96.3725 45.3578 91.6002 47.1326 87.6132 49.4226C84.7136 51.1401 82.4181 53.1439 80.7267 55.4339C79.156 57.6094 78.3707 60.3002 78.3707 63.5062V116.234C78.3707 120.699 79.5185 123.791 81.814 125.508C84.2304 127.226 87.9757 128.085 93.05 128.085C95.5872 128.085 97.9431 127.913 100.118 127.569C102.292 127.34 103.984 127.054 105.192 126.711V66.5977Z"
      fill="#CAAD90"
    />
    <path
      d="M34.4009 99.9175C34.4009 103.124 35.4883 105.471 37.663 106.959C39.8377 108.448 42.9185 109.192 46.9055 109.192C48.7177 109.192 50.6508 109.02 52.7047 108.677C54.8794 108.219 56.6917 107.704 58.1415 107.131C59.108 108.162 59.9537 109.421 60.6786 110.91C61.5243 112.398 61.9472 114.116 61.9472 116.062C61.9472 119.955 60.2558 123.161 56.8729 125.68C53.49 128.199 47.8116 129.459 39.8377 129.459C29.6891 129.459 21.7756 127.283 16.0972 122.932C10.5396 118.581 7.7608 111.482 7.7608 101.635V24.1751C8.96897 23.8316 10.6604 23.4881 12.8351 23.1446C15.0098 22.6866 17.3053 22.4576 19.7217 22.4576C24.9168 22.4576 28.6621 23.3164 30.9577 25.0339C33.2532 26.7514 34.4009 29.9002 34.4009 34.4802V46.3311H59.5913C60.1953 47.2471 60.7994 48.5638 61.4035 50.2814C62.0076 51.9989 62.3096 53.8881 62.3096 55.9492C62.3096 59.3842 61.4639 61.9032 59.7725 63.5062C58.2019 65.1092 56.0272 65.9107 53.2484 65.9107H34.4009V99.9175Z"
      fill="#CAAD90"
    />
    <path
      d="M354.727 129.802C344.82 129.802 336.302 128.142 329.174 124.821C322.167 121.386 316.73 116.635 312.864 110.566C309.118 104.498 307.246 97.3985 307.246 89.2689V22.4576C308.575 22.2286 310.447 21.9424 312.864 21.5989C315.28 21.2554 317.696 21.0836 320.113 21.0836C325.308 21.0836 329.053 21.9424 331.349 23.6599C333.765 25.3774 334.973 28.6407 334.973 33.4497V88.5819C334.973 94.8795 336.785 99.803 340.41 103.353C344.155 106.788 348.927 108.505 354.727 108.505C360.526 108.505 365.238 106.788 368.862 103.353C372.608 99.803 374.48 94.8795 374.48 88.5819V22.4576C375.809 22.2286 377.682 21.9424 380.098 21.5989C382.635 21.2554 385.052 21.0836 387.347 21.0836C392.542 21.0836 396.288 21.9424 398.583 23.6599C401 25.3774 402.208 28.6407 402.208 33.4497V89.2689C402.208 97.3985 400.335 104.498 396.59 110.566C392.844 116.635 387.408 121.386 380.279 124.821C373.151 128.142 364.634 129.802 354.727 129.802Z"
      fill="#CAAD90"
    />
    <path
      d="M565.761 126.711V33.4497C565.761 28.6407 564.613 25.3774 562.318 23.6599C560.022 21.9424 556.277 21.0836 551.082 21.0836C548.665 21.0836 546.188 21.2554 543.651 21.5989C541.235 21.9424 539.423 22.2286 538.215 22.4576V115.719C538.215 120.299 539.302 123.505 541.477 125.337C543.772 127.169 547.638 128.085 553.075 128.085C555.612 128.085 558.089 127.913 560.505 127.569C562.922 127.34 564.673 127.054 565.761 126.711Z"
      fill="#CAAD90"
    />
    <path
      fill-rule="evenodd"
      clip-rule="evenodd"
      d="M450.739 103.696C450.349 104.922 449.96 106.182 449.57 107.475C448.966 109.879 448.301 112.226 447.576 114.516C446.852 116.806 446.187 118.982 445.583 121.043C444.979 123.104 444.375 125.05 443.771 126.882C442.442 127.226 440.931 127.569 439.24 127.913C437.549 128.371 435.555 128.6 433.26 128.6C428.185 128.6 424.319 127.741 421.661 126.024C419.003 124.306 417.674 121.787 417.674 118.467C417.674 117.093 417.855 115.661 418.218 114.173C418.701 112.684 419.245 110.967 419.849 109.02C420.936 105.242 422.447 100.49 424.38 94.765C426.433 89.0399 428.608 82.8569 430.904 76.2158C433.32 69.4603 435.736 62.8192 438.153 56.2926C440.69 49.7661 442.985 43.7548 445.039 38.2588C447.214 32.7627 448.966 28.4689 450.295 25.3774C451.986 24.3469 454.644 23.4309 458.269 22.6294C462.014 21.7134 465.699 21.2554 469.323 21.2554C474.519 21.2554 479.17 21.9996 483.278 23.4881C487.386 24.8621 489.983 27.0949 491.07 30.1864C493.366 36.255 495.843 43.2968 498.501 51.3119C501.28 59.2124 504.058 67.5137 506.837 76.2158C509.616 84.9179 512.274 93.391 514.811 101.635C517.469 109.765 519.765 117.093 521.698 123.619C520.369 124.993 518.436 126.138 515.898 127.054C513.361 128.085 510.341 128.6 506.837 128.6C501.884 128.6 498.38 127.741 496.326 126.024C494.272 124.306 492.702 121.73 491.614 118.295L487.213 103.696H450.739ZM469.142 44.4418H470.23C471.317 47.7623 472.525 51.5981 473.854 55.9492C475.183 60.1857 476.633 64.7085 478.203 69.5175C479.669 74.0052 481.082 78.6425 482.443 83.4294H455.57C456.966 79.1928 458.41 74.9563 459.9 70.7198C461.591 65.7962 463.222 61.1017 464.793 56.6362C466.484 52.1706 467.934 48.1058 469.142 44.4418Z"
      fill="#CAAD90"
    />
    <path
      d="M150.733 20.7401C150.733 16.8471 152.123 13.5838 154.902 10.9503C157.801 8.31676 161.426 7 165.775 7C170.245 7 173.87 8.31676 176.649 10.9503C179.427 13.5838 180.817 16.8471 180.817 20.7401C180.817 24.5186 179.427 27.7819 176.649 30.5299C173.87 33.278 170.245 34.652 165.775 34.652C161.426 34.652 157.801 33.278 154.902 30.5299C152.123 27.7819 150.733 24.5186 150.733 20.7401Z"
      stroke="#CAAD90"
      stroke-width="14"
      stroke-linejoin="round"
      mask="url(#path-1-outside-1_6_42)"
    />
    <path
      d="M179.186 126.711C178.098 127.054 176.467 127.34 174.293 127.569C172.118 127.913 169.762 128.085 167.225 128.085C162.03 128.085 158.224 127.226 155.808 125.508C153.512 123.791 152.364 120.699 152.364 116.234V45.4723C153.452 45.1288 155.083 44.7853 157.258 44.4418C159.553 44.0983 161.969 43.9266 164.507 43.9266C169.702 43.9266 173.447 44.7853 175.743 46.5028C178.038 48.1058 179.186 51.2546 179.186 55.9492V126.711Z"
      stroke="#CAAD90"
      stroke-width="14"
      stroke-linejoin="round"
      mask="url(#path-1-outside-1_6_42)"
    />
    <path
      fill-rule="evenodd"
      clip-rule="evenodd"
      d="M244.148 129.459C239.557 129.459 235.449 128.886 231.825 127.741C230.424 127.343 229.095 126.919 227.838 126.469V157.454C226.63 157.798 224.938 158.141 222.763 158.485C220.589 158.828 218.233 159 215.696 159C210.621 159 206.876 158.141 204.46 156.424C202.164 154.706 201.016 151.557 201.016 146.977V61.617C201.016 58.7544 201.621 56.4072 202.829 54.5751C204.037 52.6286 205.91 50.9111 208.447 49.4226C212.071 47.2471 216.662 45.4723 222.22 44.0983C227.777 42.6098 233.999 41.8655 240.886 41.8655C250.189 41.8655 258.404 43.4113 265.533 46.5028C272.782 49.4799 278.4 54.1744 282.387 60.5864C286.374 66.884 288.367 75.0708 288.367 85.1469C288.367 94.8795 286.434 103.009 282.568 109.536C278.702 116.062 273.446 121.043 266.801 124.478C260.156 127.798 252.605 129.459 244.148 129.459ZM229.831 107.131C229.078 106.774 228.353 106.409 227.657 106.037V65.2237C229.227 64.3077 231.1 63.5635 233.275 62.991C235.57 62.304 238.107 61.9605 240.886 61.9605C244.994 61.9605 248.558 62.762 251.578 64.365C254.599 65.968 256.894 68.487 258.465 71.922C260.156 75.2426 261.002 79.6508 261.002 85.1469C261.002 93.162 259.129 99.1733 255.384 103.181C251.76 107.188 246.625 109.192 239.98 109.192C236.235 109.192 232.852 108.505 229.831 107.131Z"
      stroke="#CAAD90"
      stroke-width="14"
      stroke-linejoin="round"
      mask="url(#path-1-outside-1_6_42)"
    />
    <path
      d="M105.192 66.5977C107.729 65.2237 110.81 64.136 114.435 63.3345C118.059 62.533 121.684 62.1322 125.308 62.1322C127.362 62.1322 129.235 62.2467 130.926 62.4757C132.738 62.5902 134.249 62.762 135.457 62.991C136.182 61.846 136.786 60.4719 137.269 58.8689C137.873 57.2659 138.175 55.5484 138.175 53.7164C138.175 45.9303 132.013 42.0373 119.69 42.0373C113.528 42.0373 107.608 42.7243 101.93 44.0983C96.3725 45.3578 91.6002 47.1326 87.6132 49.4226C84.7136 51.1401 82.4181 53.1439 80.7267 55.4339C79.156 57.6094 78.3707 60.3002 78.3707 63.5062V116.234C78.3707 120.699 79.5185 123.791 81.814 125.508C84.2304 127.226 87.9757 128.085 93.05 128.085C95.5872 128.085 97.9431 127.913 100.118 127.569C102.292 127.34 103.984 127.054 105.192 126.711V66.5977Z"
      stroke="#CAAD90"
      stroke-width="14"
      stroke-linejoin="round"
      mask="url(#path-1-outside-1_6_42)"
    />
    <path
      d="M34.4009 99.9175C34.4009 103.124 35.4883 105.471 37.663 106.959C39.8377 108.448 42.9185 109.192 46.9055 109.192C48.7177 109.192 50.6508 109.02 52.7047 108.677C54.8794 108.219 56.6917 107.704 58.1415 107.131C59.108 108.162 59.9537 109.421 60.6786 110.91C61.5243 112.398 61.9472 114.116 61.9472 116.062C61.9472 119.955 60.2558 123.161 56.8729 125.68C53.49 128.199 47.8116 129.459 39.8377 129.459C29.6891 129.459 21.7756 127.283 16.0972 122.932C10.5396 118.581 7.7608 111.482 7.7608 101.635V24.1751C8.96897 23.8316 10.6604 23.4881 12.8351 23.1446C15.0098 22.6866 17.3053 22.4576 19.7217 22.4576C24.9168 22.4576 28.6621 23.3164 30.9577 25.0339C33.2532 26.7514 34.4009 29.9002 34.4009 34.4802V46.3311H59.5913C60.1953 47.2471 60.7994 48.5638 61.4035 50.2814C62.0076 51.9989 62.3096 53.8881 62.3096 55.9492C62.3096 59.3842 61.4639 61.9032 59.7725 63.5062C58.2019 65.1092 56.0272 65.9107 53.2484 65.9107H34.4009V99.9175Z"
      stroke="#CAAD90"
      stroke-width="14"
      stroke-linejoin="round"
      mask="url(#path-1-outside-1_6_42)"
    />
    <path
      d="M354.727 129.802C344.82 129.802 336.302 128.142 329.174 124.821C322.167 121.386 316.73 116.635 312.864 110.566C309.118 104.498 307.246 97.3985 307.246 89.2689V22.4576C308.575 22.2286 310.447 21.9424 312.864 21.5989C315.28 21.2554 317.696 21.0836 320.113 21.0836C325.308 21.0836 329.053 21.9424 331.349 23.6599C333.765 25.3774 334.973 28.6407 334.973 33.4497V88.5819C334.973 94.8795 336.785 99.803 340.41 103.353C344.155 106.788 348.927 108.505 354.727 108.505C360.526 108.505 365.238 106.788 368.862 103.353C372.608 99.803 374.48 94.8795 374.48 88.5819V22.4576C375.809 22.2286 377.682 21.9424 380.098 21.5989C382.635 21.2554 385.052 21.0836 387.347 21.0836C392.542 21.0836 396.288 21.9424 398.583 23.6599C401 25.3774 402.208 28.6407 402.208 33.4497V89.2689C402.208 97.3985 400.335 104.498 396.59 110.566C392.844 116.635 387.408 121.386 380.279 124.821C373.151 128.142 364.634 129.802 354.727 129.802Z"
      stroke="#CAAD90"
      stroke-width="14"
      stroke-linejoin="round"
      mask="url(#path-1-outside-1_6_42)"
    />
    <path
      d="M565.761 126.711V33.4497C565.761 28.6407 564.613 25.3774 562.318 23.6599C560.022 21.9424 556.277 21.0836 551.082 21.0836C548.665 21.0836 546.188 21.2554 543.651 21.5989C541.235 21.9424 539.423 22.2286 538.215 22.4576V115.719C538.215 120.299 539.302 123.505 541.477 125.337C543.772 127.169 547.638 128.085 553.075 128.085C555.612 128.085 558.089 127.913 560.505 127.569C562.922 127.34 564.673 127.054 565.761 126.711Z"
      stroke="#CAAD90"
      stroke-width="14"
      stroke-linejoin="round"
      mask="url(#path-1-outside-1_6_42)"
    />
    <path
      fill-rule="evenodd"
      clip-rule="evenodd"
      d="M450.739 103.696C450.349 104.922 449.96 106.182 449.57 107.475C448.966 109.879 448.301 112.226 447.576 114.516C446.852 116.806 446.187 118.982 445.583 121.043C444.979 123.104 444.375 125.05 443.771 126.882C442.442 127.226 440.931 127.569 439.24 127.913C437.549 128.371 435.555 128.6 433.26 128.6C428.185 128.6 424.319 127.741 421.661 126.024C419.003 124.306 417.674 121.787 417.674 118.467C417.674 117.093 417.855 115.661 418.218 114.173C418.701 112.684 419.245 110.967 419.849 109.02C420.936 105.242 422.447 100.49 424.38 94.765C426.433 89.0399 428.608 82.8569 430.904 76.2158C433.32 69.4603 435.736 62.8192 438.153 56.2926C440.69 49.7661 442.985 43.7548 445.039 38.2588C447.214 32.7627 448.966 28.4689 450.295 25.3774C451.986 24.3469 454.644 23.4309 458.269 22.6294C462.014 21.7134 465.699 21.2554 469.323 21.2554C474.519 21.2554 479.17 21.9996 483.278 23.4881C487.386 24.8621 489.983 27.0949 491.07 30.1864C493.366 36.255 495.843 43.2968 498.501 51.3119C501.28 59.2124 504.058 67.5137 506.837 76.2158C509.616 84.9179 512.274 93.391 514.811 101.635C517.469 109.765 519.765 117.093 521.698 123.619C520.369 124.993 518.436 126.138 515.898 127.054C513.361 128.085 510.341 128.6 506.837 128.6C501.884 128.6 498.38 127.741 496.326 126.024C494.272 124.306 492.702 121.73 491.614 118.295L487.213 103.696H450.739ZM469.142 44.4418H470.23C471.317 47.7623 472.525 51.5981 473.854 55.9492C475.183 60.1857 476.633 64.7085 478.203 69.5175C479.669 74.0052 481.082 78.6425 482.443 83.4294H455.57C456.966 79.1928 458.41 74.9563 459.9 70.7198C461.591 65.7962 463.222 61.1017 464.793 56.6362C466.484 52.1706 467.934 48.1058 469.142 44.4418Z"
      stroke="#CAAD90"
      stroke-width="14"
      stroke-linejoin="round"
      mask="url(#path-1-outside-1_6_42)"
    />
    <mask
      id="mask0_6_42"
      style="mask-type: alpha"
      maskUnits="userSpaceOnUse"
      x="7"
      y="7"
      width="559"
      height="152"
    >
      <path
        d="M150.733 20.7401C150.733 16.8471 152.123 13.5838 154.902 10.9503C157.801 8.31676 161.426 7 165.775 7C170.245 7 173.87 8.31676 176.649 10.9503C179.427 13.5838 180.817 16.8471 180.817 20.7401C180.817 24.5186 179.427 27.7819 176.649 30.5299C173.87 33.278 170.245 34.652 165.775 34.652C161.426 34.652 157.801 33.278 154.902 30.5299C152.123 27.7819 150.733 24.5186 150.733 20.7401Z"
        fill="#0C2716"
      />
      <path
        d="M179.186 126.711C178.098 127.054 176.467 127.34 174.293 127.569C172.118 127.913 169.762 128.085 167.225 128.085C162.03 128.085 158.224 127.226 155.808 125.508C153.512 123.791 152.364 120.699 152.364 116.234V45.4723C153.452 45.1288 155.083 44.7853 157.258 44.4418C159.553 44.0983 161.969 43.9266 164.507 43.9266C169.702 43.9266 173.447 44.7853 175.743 46.5028C178.038 48.1058 179.186 51.2546 179.186 55.9492V126.711Z"
        fill="#0C2716"
      />
      <path
        fill-rule="evenodd"
        clip-rule="evenodd"
        d="M244.148 129.459C239.557 129.459 235.449 128.886 231.825 127.741C230.424 127.343 229.095 126.919 227.838 126.469V157.454C226.63 157.798 224.938 158.141 222.763 158.485C220.589 158.828 218.233 159 215.696 159C210.621 159 206.876 158.141 204.46 156.424C202.164 154.706 201.016 151.557 201.016 146.977V61.617C201.016 58.7544 201.621 56.4072 202.829 54.5751C204.037 52.6286 205.91 50.9111 208.447 49.4226C212.071 47.2471 216.662 45.4723 222.22 44.0983C227.777 42.6098 233.999 41.8655 240.886 41.8655C250.189 41.8655 258.404 43.4113 265.533 46.5028C272.782 49.4799 278.4 54.1744 282.387 60.5864C286.374 66.884 288.367 75.0708 288.367 85.1469C288.367 94.8795 286.434 103.009 282.568 109.536C278.702 116.062 273.446 121.043 266.801 124.478C260.156 127.798 252.605 129.459 244.148 129.459ZM229.831 107.131C229.078 106.774 228.353 106.409 227.657 106.037V65.2237C229.227 64.3077 231.1 63.5635 233.275 62.991C235.57 62.304 238.107 61.9605 240.886 61.9605C244.994 61.9605 248.558 62.762 251.578 64.365C254.599 65.968 256.894 68.487 258.465 71.922C260.156 75.2426 261.002 79.6508 261.002 85.1469C261.002 93.162 259.129 99.1733 255.384 103.181C251.76 107.188 246.625 109.192 239.98 109.192C236.235 109.192 232.852 108.505 229.831 107.131Z"
        fill="#0C2716"
      />
      <path
        d="M105.192 66.5977C107.729 65.2237 110.81 64.136 114.435 63.3345C118.059 62.533 121.684 62.1322 125.308 62.1322C127.362 62.1322 129.235 62.2467 130.926 62.4757C132.738 62.5902 134.249 62.762 135.457 62.991C136.182 61.846 136.786 60.4719 137.269 58.8689C137.873 57.2659 138.175 55.5484 138.175 53.7164C138.175 45.9303 132.013 42.0373 119.69 42.0373C113.528 42.0373 107.608 42.7243 101.93 44.0983C96.3725 45.3578 91.6002 47.1326 87.6132 49.4226C84.7136 51.1401 82.4181 53.1439 80.7267 55.4339C79.156 57.6094 78.3707 60.3002 78.3707 63.5062V116.234C78.3707 120.699 79.5185 123.791 81.814 125.508C84.2304 127.226 87.9757 128.085 93.05 128.085C95.5872 128.085 97.9431 127.913 100.118 127.569C102.292 127.34 103.984 127.054 105.192 126.711V66.5977Z"
        fill="#0C2716"
      />
      <path
        d="M34.4009 99.9175C34.4009 103.124 35.4883 105.471 37.663 106.959C39.8377 108.448 42.9185 109.192 46.9055 109.192C48.7177 109.192 50.6508 109.02 52.7047 108.677C54.8794 108.219 56.6917 107.704 58.1415 107.131C59.108 108.162 59.9537 109.421 60.6786 110.91C61.5243 112.398 61.9472 114.116 61.9472 116.062C61.9472 119.955 60.2558 123.161 56.8729 125.68C53.49 128.199 47.8116 129.459 39.8377 129.459C29.6891 129.459 21.7756 127.283 16.0972 122.932C10.5396 118.581 7.7608 111.482 7.7608 101.635V24.1751C8.96897 23.8316 10.6604 23.4881 12.8351 23.1446C15.0098 22.6866 17.3053 22.4576 19.7217 22.4576C24.9168 22.4576 28.6621 23.3164 30.9577 25.0339C33.2532 26.7514 34.4009 29.9002 34.4009 34.4802V46.3311H59.5913C60.1953 47.2471 60.7994 48.5638 61.4035 50.2814C62.0076 51.9989 62.3096 53.8881 62.3096 55.9492C62.3096 59.3842 61.4639 61.9032 59.7725 63.5062C58.2019 65.1092 56.0272 65.9107 53.2484 65.9107H34.4009V99.9175Z"
        fill="#0C2716"
      />
      <path
        d="M354.727 129.802C344.82 129.802 336.302 128.142 329.174 124.821C322.167 121.386 316.73 116.635 312.864 110.566C309.118 104.498 307.246 97.3985 307.246 89.2689V22.4576C308.575 22.2286 310.447 21.9424 312.864 21.5989C315.28 21.2554 317.696 21.0836 320.113 21.0836C325.308 21.0836 329.053 21.9424 331.349 23.6599C333.765 25.3774 334.973 28.6407 334.973 33.4497V88.5819C334.973 94.8795 336.785 99.803 340.41 103.353C344.155 106.788 348.927 108.505 354.727 108.505C360.526 108.505 365.238 106.788 368.862 103.353C372.608 99.803 374.48 94.8795 374.48 88.5819V22.4576C375.809 22.2286 377.682 21.9424 380.098 21.5989C382.635 21.2554 385.052 21.0836 387.347 21.0836C392.542 21.0836 396.288 21.9424 398.583 23.6599C401 25.3774 402.208 28.6407 402.208 33.4497V89.2689C402.208 97.3985 400.335 104.498 396.59 110.566C392.844 116.635 387.408 121.386 380.279 124.821C373.151 128.142 364.634 129.802 354.727 129.802Z"
        fill="#0C2716"
      />
      <path
        d="M565.761 126.711V33.4497C565.761 28.6407 564.613 25.3774 562.318 23.6599C560.022 21.9424 556.277 21.0836 551.082 21.0836C548.665 21.0836 546.188 21.2554 543.651 21.5989C541.235 21.9424 539.423 22.2286 538.215 22.4576V115.719C538.215 120.299 539.302 123.505 541.477 125.337C543.772 127.169 547.638 128.085 553.075 128.085C555.612 128.085 558.089 127.913 560.505 127.569C562.922 127.34 564.673 127.054 565.761 126.711Z"
        fill="#0C2716"
      />
      <path
        fill-rule="evenodd"
        clip-rule="evenodd"
        d="M450.739 103.696C450.349 104.922 449.96 106.182 449.57 107.475C448.966 109.879 448.301 112.226 447.576 114.516C446.852 116.806 446.187 118.982 445.583 121.043C444.979 123.104 444.375 125.05 443.771 126.882C442.442 127.226 440.931 127.569 439.24 127.913C437.549 128.371 435.555 128.6 433.26 128.6C428.185 128.6 424.319 127.741 421.661 126.024C419.003 124.306 417.674 121.787 417.674 118.467C417.674 117.093 417.855 115.661 418.218 114.173C418.701 112.684 419.245 110.967 419.849 109.02C420.936 105.242 422.447 100.49 424.38 94.765C426.433 89.0399 428.608 82.8569 430.904 76.2158C433.32 69.4603 435.736 62.8192 438.153 56.2926C440.69 49.7661 442.985 43.7548 445.039 38.2588C447.214 32.7627 448.966 28.4689 450.295 25.3774C451.986 24.3469 454.644 23.4309 458.269 22.6294C462.014 21.7134 465.699 21.2554 469.323 21.2554C474.519 21.2554 479.17 21.9996 483.278 23.4881C487.386 24.8621 489.983 27.0949 491.07 30.1864C493.366 36.255 495.843 43.2968 498.501 51.3119C501.28 59.2124 504.058 67.5137 506.837 76.2158C509.616 84.9179 512.274 93.391 514.811 101.635C517.469 109.765 519.765 117.093 521.698 123.619C520.369 124.993 518.436 126.138 515.898 127.054C513.361 128.085 510.341 128.6 506.837 128.6C501.884 128.6 498.38 127.741 496.326 126.024C494.272 124.306 492.702 121.73 491.614 118.295L487.213 103.696H450.739ZM469.142 44.4418H470.23C471.317 47.7623 472.525 51.5981 473.854 55.9492C475.183 60.1857 476.633 64.7085 478.203 69.5175C479.669 74.0052 481.082 78.6425 482.443 83.4294H455.57C456.966 79.1928 458.41 74.9563 459.9 70.7198C461.591 65.7962 463.222 61.1017 464.793 56.6362C466.484 52.1706 467.934 48.1058 469.142 44.4418Z"
        fill="#0C2716"
      />
    </mask>
    <g mask="url(#mask0_6_42)">
      <g filter="url(#filter1_f_6_42)">
        <path
          d="M501.318 141.367C501.318 273.162 275.429 628.116 190.107 329.52C104.785 30.9245 -121.103 273.162 -121.103 141.367C-121.103 9.57228 140.489 -243.295 190.107 -46.786C239.725 149.723 501.318 9.57228 501.318 141.367Z"
          fill="#366346"
        />
      </g>
      <g filter="url(#filter2_f_6_42)">
        <path
          d="M602.836 109.778C602.836 233.6 411.226 77.0554 325.099 286.549C238.973 496.044 -18.2835 -125.183 47.3632 109.778C113.01 344.739 280.818 -251.615 325.099 -66.993C369.38 117.629 602.836 -14.0441 602.836 109.778Z"
          fill="#FF9233"
        />
      </g>
      <g filter="url(#filter3_f_6_42)">
        <path
          d="M882.591 133.376C882.591 257.198 690.98 100.653 604.854 310.147C518.727 519.641 485.568 152.44 327.118 133.376C168.668 114.312 560.573 -228.017 604.854 -43.3951C649.135 141.227 882.591 9.55393 882.591 133.376Z"
          fill="#EB4747"
        />
      </g>
    </g>
  </g>
  <defs>
    <filter
      id="filter0_i_6_42"
      x="-2.2392"
      y="0"
      width="575"
      height="169"
      filterUnits="userSpaceOnUse"
      color-interpolation-filters="sRGB"
    >
      <feFlood flood-opacity="0" result="BackgroundImageFix" />
      <feBlend
        mode="normal"
        in="SourceGraphic"
        in2="BackgroundImageFix"
        result="shape"
      />
      <feColorMatrix
        in="SourceAlpha"
        type="matrix"
        values="0 0 0 0 0 0 0 0 0 0 0 0 0 0 0 0 0 0 127 0"
        result="hardAlpha"
      />
      <feOffset dx="-3" dy="3" />
      <feGaussianBlur stdDeviation="2" />
      <feComposite in2="hardAlpha" operator="arithmetic" k2="-1" k3="1" />
      <feColorMatrix
        type="matrix"
        values="0 0 0 0 1 0 0 0 0 1 0 0 0 0 1 0 0 0 0.2 0"
      />
      <feBlend mode="normal" in2="shape" result="effect1_innerShadow_6_42" />
    </filter>
    <filter
      id="filter1_f_6_42"
      x="-281.103"
      y="-278.961"
      width="942.421"
      height="884.835"
      filterUnits="userSpaceOnUse"
      color-interpolation-filters="sRGB"
    >
      <feFlood flood-opacity="0" result="BackgroundImageFix" />
      <feBlend
        mode="normal"
        in="SourceGraphic"
        in2="BackgroundImageFix"
        result="shape"
      />
      <feGaussianBlur stdDeviation="80" result="effect1_foregroundBlur_6_42" />
    </filter>
    <filter
      id="filter2_f_6_42"
      x="-123.237"
      y="-263.045"
      width="886.073"
      height="753.491"
      filterUnits="userSpaceOnUse"
      color-interpolation-filters="sRGB"
    >
      <feFlood flood-opacity="0" result="BackgroundImageFix" />
      <feBlend
        mode="normal"
        in="SourceGraphic"
        in2="BackgroundImageFix"
        result="shape"
      />
      <feGaussianBlur stdDeviation="80" result="effect1_foregroundBlur_6_42" />
    </filter>
    <filter
      id="filter3_f_6_42"
      x="129.598"
      y="-257.866"
      width="912.992"
      height="792.392"
      filterUnits="userSpaceOnUse"
      color-interpolation-filters="sRGB"
    >
      <feFlood flood-opacity="0" result="BackgroundImageFix" />
      <feBlend
        mode="normal"
        in="SourceGraphic"
        in2="BackgroundImageFix"
        result="shape"
      />
      <feGaussianBlur stdDeviation="80" result="effect1_foregroundBlur_6_42" />
    </filter>
  </defs>
</svg>
